<mxfile host="65bd71144e">
    <diagram id="R2lEEEUBdFMjLlhIrx00" name="Page-1">
        <mxGraphModel dx="708" dy="563" grid="0" gridSize="10" guides="1" tooltips="1" connect="1" arrows="1" fold="1" page="1" pageScale="1" pageWidth="850" pageHeight="1100" background="#ffffff" math="0" shadow="0" extFonts="Permanent Marker^https://fonts.googleapis.com/css?family=Permanent+Marker">
            <root>
                <mxCell id="0"/>
                <mxCell id="1" parent="0"/>
                <mxCell id="NoCKhjs10_cQO4ZBRi83-19" style="rounded=0;orthogonalLoop=1;jettySize=auto;html=1;entryX=0.5;entryY=1;entryDx=0;entryDy=0;endArrow=none;endFill=0;labelBackgroundColor=none;fillColor=#eeeeee;strokeColor=#36393d;fontColor=#000000;" parent="1" source="NoCKhjs10_cQO4ZBRi83-1" target="NoCKhjs10_cQO4ZBRi83-17" edge="1">
                    <mxGeometry relative="1" as="geometry"/>
                </mxCell>
                <mxCell id="NoCKhjs10_cQO4ZBRi83-21" style="edgeStyle=none;shape=connector;rounded=0;orthogonalLoop=1;jettySize=auto;html=1;labelBackgroundColor=none;strokeColor=#36393d;align=center;verticalAlign=middle;fontFamily=Helvetica;fontSize=11;fontColor=#000000;startArrow=none;startFill=0;endArrow=none;endFill=0;fillColor=#eeeeee;" parent="1" source="NoCKhjs10_cQO4ZBRi83-1" target="NoCKhjs10_cQO4ZBRi83-5" edge="1">
                    <mxGeometry relative="1" as="geometry"/>
                </mxCell>
                <mxCell id="NoCKhjs10_cQO4ZBRi83-32" style="edgeStyle=none;shape=connector;rounded=0;orthogonalLoop=1;jettySize=auto;html=1;labelBackgroundColor=none;strokeColor=#36393d;align=center;verticalAlign=middle;fontFamily=Helvetica;fontSize=11;fontColor=#000000;startArrow=none;startFill=0;endArrow=none;endFill=0;fillColor=#eeeeee;" parent="1" source="NoCKhjs10_cQO4ZBRi83-1" target="NoCKhjs10_cQO4ZBRi83-29" edge="1">
                    <mxGeometry relative="1" as="geometry"/>
                </mxCell>
                <mxCell id="NoCKhjs10_cQO4ZBRi83-34" style="edgeStyle=none;shape=connector;rounded=0;orthogonalLoop=1;jettySize=auto;html=1;entryX=0.5;entryY=0;entryDx=0;entryDy=0;labelBackgroundColor=none;strokeColor=#36393d;align=center;verticalAlign=middle;fontFamily=Helvetica;fontSize=11;fontColor=#000000;startArrow=none;startFill=0;endArrow=none;endFill=0;fillColor=#eeeeee;" parent="1" source="NoCKhjs10_cQO4ZBRi83-1" target="NoCKhjs10_cQO4ZBRi83-33" edge="1">
                    <mxGeometry relative="1" as="geometry"/>
                </mxCell>
                <mxCell id="NoCKhjs10_cQO4ZBRi83-1" value="User&lt;span style=&quot;white-space: pre;&quot;&gt;&#9;&lt;/span&gt;" style="whiteSpace=wrap;html=1;align=center;labelBackgroundColor=none;fillColor=#eeeeee;strokeColor=#36393d;fontColor=#000000;" parent="1" vertex="1">
                    <mxGeometry x="375" y="460" width="100" height="40" as="geometry"/>
                </mxCell>
                <mxCell id="NoCKhjs10_cQO4ZBRi83-13" style="rounded=0;orthogonalLoop=1;jettySize=auto;html=1;entryX=1;entryY=1;entryDx=0;entryDy=0;endArrow=none;endFill=0;labelBackgroundColor=none;fillColor=#eeeeee;strokeColor=#36393d;fontColor=#000000;" parent="1" source="NoCKhjs10_cQO4ZBRi83-2" target="NoCKhjs10_cQO4ZBRi83-9" edge="1">
                    <mxGeometry relative="1" as="geometry"/>
                </mxCell>
                <mxCell id="NoCKhjs10_cQO4ZBRi83-14" style="edgeStyle=orthogonalEdgeStyle;rounded=0;orthogonalLoop=1;jettySize=auto;html=1;entryX=0.5;entryY=1;entryDx=0;entryDy=0;endArrow=none;endFill=0;labelBackgroundColor=none;fillColor=#eeeeee;strokeColor=#36393d;fontColor=#000000;" parent="1" source="NoCKhjs10_cQO4ZBRi83-2" target="NoCKhjs10_cQO4ZBRi83-4" edge="1">
                    <mxGeometry relative="1" as="geometry"/>
                </mxCell>
                <mxCell id="NoCKhjs10_cQO4ZBRi83-15" style="rounded=0;orthogonalLoop=1;jettySize=auto;html=1;entryX=0;entryY=1;entryDx=0;entryDy=0;endArrow=none;endFill=0;labelBackgroundColor=none;fillColor=#eeeeee;strokeColor=#36393d;fontColor=#000000;" parent="1" source="NoCKhjs10_cQO4ZBRi83-2" target="NoCKhjs10_cQO4ZBRi83-7" edge="1">
                    <mxGeometry relative="1" as="geometry"/>
                </mxCell>
                <mxCell id="NoCKhjs10_cQO4ZBRi83-20" style="rounded=0;orthogonalLoop=1;jettySize=auto;html=1;startArrow=none;startFill=0;endArrow=none;endFill=0;labelBackgroundColor=none;fillColor=#eeeeee;strokeColor=#36393d;fontColor=#000000;" parent="1" source="NoCKhjs10_cQO4ZBRi83-2" target="NoCKhjs10_cQO4ZBRi83-17" edge="1">
                    <mxGeometry relative="1" as="geometry"/>
                </mxCell>
                <mxCell id="NoCKhjs10_cQO4ZBRi83-2" value="Appointment" style="whiteSpace=wrap;html=1;align=center;labelBackgroundColor=none;fillColor=#eeeeee;strokeColor=#36393d;fontColor=#000000;" parent="1" vertex="1">
                    <mxGeometry x="375" y="120" width="100" height="40" as="geometry"/>
                </mxCell>
                <mxCell id="NoCKhjs10_cQO4ZBRi83-22" style="edgeStyle=none;shape=connector;rounded=0;orthogonalLoop=1;jettySize=auto;html=1;labelBackgroundColor=none;strokeColor=#36393d;align=center;verticalAlign=middle;fontFamily=Helvetica;fontSize=11;fontColor=#000000;startArrow=none;startFill=0;endArrow=none;endFill=0;fillColor=#eeeeee;" parent="1" source="NoCKhjs10_cQO4ZBRi83-3" target="NoCKhjs10_cQO4ZBRi83-6" edge="1">
                    <mxGeometry relative="1" as="geometry"/>
                </mxCell>
                <mxCell id="NoCKhjs10_cQO4ZBRi83-3" value="Group" style="whiteSpace=wrap;html=1;align=center;labelBackgroundColor=none;fillColor=#eeeeee;strokeColor=#36393d;fontColor=#000000;" parent="1" vertex="1">
                    <mxGeometry x="375" y="800" width="100" height="40" as="geometry"/>
                </mxCell>
                <mxCell id="NoCKhjs10_cQO4ZBRi83-4" value="ID" style="ellipse;whiteSpace=wrap;html=1;align=center;fontStyle=4;labelBackgroundColor=none;fillColor=#eeeeee;strokeColor=#36393d;fontColor=#000000;" parent="1" vertex="1">
                    <mxGeometry x="375" y="10" width="100" height="40" as="geometry"/>
                </mxCell>
                <mxCell id="NoCKhjs10_cQO4ZBRi83-5" value="ID" style="ellipse;whiteSpace=wrap;html=1;align=center;fontStyle=4;labelBackgroundColor=none;fillColor=#eeeeee;strokeColor=#36393d;fontColor=#000000;" parent="1" vertex="1">
                    <mxGeometry x="590" y="420" width="100" height="40" as="geometry"/>
                </mxCell>
                <mxCell id="NoCKhjs10_cQO4ZBRi83-6" value="ID" style="ellipse;whiteSpace=wrap;html=1;align=center;fontStyle=4;labelBackgroundColor=none;fillColor=#eeeeee;strokeColor=#36393d;fontColor=#000000;" parent="1" vertex="1">
                    <mxGeometry x="590" y="800" width="100" height="40" as="geometry"/>
                </mxCell>
                <mxCell id="NoCKhjs10_cQO4ZBRi83-7" value="title" style="ellipse;whiteSpace=wrap;html=1;align=center;labelBackgroundColor=none;fillColor=#eeeeee;strokeColor=#36393d;fontColor=#000000;" parent="1" vertex="1">
                    <mxGeometry x="550" y="40" width="100" height="40" as="geometry"/>
                </mxCell>
                <mxCell id="NoCKhjs10_cQO4ZBRi83-16" style="rounded=0;orthogonalLoop=1;jettySize=auto;html=1;endArrow=none;endFill=0;labelBackgroundColor=none;fillColor=#eeeeee;strokeColor=#36393d;fontColor=#000000;" parent="1" source="NoCKhjs10_cQO4ZBRi83-8" target="NoCKhjs10_cQO4ZBRi83-2" edge="1">
                    <mxGeometry relative="1" as="geometry"/>
                </mxCell>
                <mxCell id="NoCKhjs10_cQO4ZBRi83-8" value="start" style="ellipse;whiteSpace=wrap;html=1;align=center;labelBackgroundColor=none;fillColor=#eeeeee;strokeColor=#36393d;fontColor=#000000;" parent="1" vertex="1">
                    <mxGeometry x="590" y="120" width="100" height="40" as="geometry"/>
                </mxCell>
                <mxCell id="NoCKhjs10_cQO4ZBRi83-9" value="end" style="ellipse;whiteSpace=wrap;html=1;align=center;labelBackgroundColor=none;fillColor=#eeeeee;strokeColor=#36393d;fontColor=#000000;" parent="1" vertex="1">
                    <mxGeometry x="200" y="40" width="100" height="40" as="geometry"/>
                </mxCell>
                <mxCell id="NoCKhjs10_cQO4ZBRi83-11" style="edgeStyle=orthogonalEdgeStyle;rounded=0;orthogonalLoop=1;jettySize=auto;html=1;endArrow=none;endFill=0;labelBackgroundColor=none;fillColor=#eeeeee;strokeColor=#36393d;fontColor=#000000;" parent="1" source="NoCKhjs10_cQO4ZBRi83-10" target="NoCKhjs10_cQO4ZBRi83-2" edge="1">
                    <mxGeometry relative="1" as="geometry"/>
                </mxCell>
                <mxCell id="NoCKhjs10_cQO4ZBRi83-10" value="description" style="ellipse;whiteSpace=wrap;html=1;align=center;labelBackgroundColor=none;fillColor=#eeeeee;strokeColor=#36393d;fontColor=#000000;" parent="1" vertex="1">
                    <mxGeometry x="160" y="120" width="100" height="40" as="geometry"/>
                </mxCell>
                <mxCell id="NoCKhjs10_cQO4ZBRi83-24" style="edgeStyle=none;shape=connector;rounded=0;orthogonalLoop=1;jettySize=auto;html=1;labelBackgroundColor=none;strokeColor=#36393d;align=center;verticalAlign=middle;fontFamily=Helvetica;fontSize=11;fontColor=#000000;startArrow=none;startFill=0;endArrow=none;endFill=0;fillColor=#eeeeee;" parent="1" source="NoCKhjs10_cQO4ZBRi83-17" target="NoCKhjs10_cQO4ZBRi83-23" edge="1">
                    <mxGeometry relative="1" as="geometry"/>
                </mxCell>
                <mxCell id="NoCKhjs10_cQO4ZBRi83-17" value="has" style="shape=rhombus;perimeter=rhombusPerimeter;whiteSpace=wrap;html=1;align=center;labelBackgroundColor=none;fillColor=#eeeeee;strokeColor=#36393d;fontColor=#000000;" parent="1" vertex="1">
                    <mxGeometry x="365" y="270" width="120" height="60" as="geometry"/>
                </mxCell>
                <mxCell id="NoCKhjs10_cQO4ZBRi83-23" value="status" style="ellipse;whiteSpace=wrap;html=1;align=center;labelBackgroundColor=none;fillColor=#eeeeee;strokeColor=#36393d;fontColor=#000000;" parent="1" vertex="1">
                    <mxGeometry x="590" y="280" width="100" height="40" as="geometry"/>
                </mxCell>
                <mxCell id="NoCKhjs10_cQO4ZBRi83-26" style="edgeStyle=none;shape=connector;rounded=0;orthogonalLoop=1;jettySize=auto;html=1;labelBackgroundColor=none;strokeColor=#36393d;align=center;verticalAlign=middle;fontFamily=Helvetica;fontSize=11;fontColor=#000000;startArrow=none;startFill=0;endArrow=none;endFill=0;fillColor=#eeeeee;" parent="1" source="NoCKhjs10_cQO4ZBRi83-25" target="NoCKhjs10_cQO4ZBRi83-17" edge="1">
                    <mxGeometry relative="1" as="geometry"/>
                </mxCell>
                <mxCell id="NoCKhjs10_cQO4ZBRi83-25" value="owner" style="ellipse;whiteSpace=wrap;html=1;align=center;labelBackgroundColor=none;fillColor=#eeeeee;strokeColor=#36393d;fontColor=#000000;" parent="1" vertex="1">
                    <mxGeometry x="160" y="280" width="100" height="40" as="geometry"/>
                </mxCell>
                <mxCell id="NoCKhjs10_cQO4ZBRi83-30" style="edgeStyle=none;shape=connector;rounded=0;orthogonalLoop=1;jettySize=auto;html=1;labelBackgroundColor=none;strokeColor=#36393d;align=center;verticalAlign=middle;fontFamily=Helvetica;fontSize=11;fontColor=#000000;startArrow=none;startFill=0;endArrow=none;endFill=0;fillColor=#eeeeee;" parent="1" source="NoCKhjs10_cQO4ZBRi83-27" target="NoCKhjs10_cQO4ZBRi83-1" edge="1">
                    <mxGeometry relative="1" as="geometry"/>
                </mxCell>
                <mxCell id="NoCKhjs10_cQO4ZBRi83-27" value="given name" style="ellipse;whiteSpace=wrap;html=1;align=center;labelBackgroundColor=none;fillColor=#eeeeee;strokeColor=#36393d;fontColor=#000000;" parent="1" vertex="1">
                    <mxGeometry x="160" y="420" width="100" height="40" as="geometry"/>
                </mxCell>
                <mxCell id="NoCKhjs10_cQO4ZBRi83-31" style="edgeStyle=none;shape=connector;rounded=0;orthogonalLoop=1;jettySize=auto;html=1;labelBackgroundColor=none;strokeColor=#36393d;align=center;verticalAlign=middle;fontFamily=Helvetica;fontSize=11;fontColor=#000000;startArrow=none;startFill=0;endArrow=none;endFill=0;fillColor=#eeeeee;" parent="1" source="NoCKhjs10_cQO4ZBRi83-28" target="NoCKhjs10_cQO4ZBRi83-1" edge="1">
                    <mxGeometry relative="1" as="geometry"/>
                </mxCell>
                <mxCell id="NoCKhjs10_cQO4ZBRi83-28" value="family name" style="ellipse;whiteSpace=wrap;html=1;align=center;labelBackgroundColor=none;fillColor=#eeeeee;strokeColor=#36393d;fontColor=#000000;" parent="1" vertex="1">
                    <mxGeometry x="160" y="500" width="100" height="40" as="geometry"/>
                </mxCell>
                <mxCell id="NoCKhjs10_cQO4ZBRi83-29" value="email" style="ellipse;whiteSpace=wrap;html=1;align=center;labelBackgroundColor=none;fillColor=#eeeeee;strokeColor=#36393d;fontColor=#000000;" parent="1" vertex="1">
                    <mxGeometry x="590" y="500" width="100" height="40" as="geometry"/>
                </mxCell>
                <mxCell id="NoCKhjs10_cQO4ZBRi83-35" style="edgeStyle=none;shape=connector;rounded=0;orthogonalLoop=1;jettySize=auto;html=1;entryX=0.5;entryY=0;entryDx=0;entryDy=0;labelBackgroundColor=none;strokeColor=#36393d;align=center;verticalAlign=middle;fontFamily=Helvetica;fontSize=11;fontColor=#000000;startArrow=none;startFill=0;endArrow=none;endFill=0;fillColor=#eeeeee;" parent="1" source="NoCKhjs10_cQO4ZBRi83-33" target="NoCKhjs10_cQO4ZBRi83-3" edge="1">
                    <mxGeometry relative="1" as="geometry"/>
                </mxCell>
                <mxCell id="NoCKhjs10_cQO4ZBRi83-39" style="edgeStyle=none;shape=connector;rounded=0;orthogonalLoop=1;jettySize=auto;html=1;labelBackgroundColor=none;strokeColor=#36393d;align=center;verticalAlign=middle;fontFamily=Helvetica;fontSize=11;fontColor=#000000;startArrow=none;startFill=0;endArrow=none;endFill=0;fillColor=#eeeeee;" parent="1" source="NoCKhjs10_cQO4ZBRi83-33" target="NoCKhjs10_cQO4ZBRi83-38" edge="1">
                    <mxGeometry relative="1" as="geometry"/>
                </mxCell>
                <mxCell id="NoCKhjs10_cQO4ZBRi83-33" value="is member" style="shape=rhombus;perimeter=rhombusPerimeter;whiteSpace=wrap;html=1;align=center;labelBackgroundColor=none;fillColor=#eeeeee;strokeColor=#36393d;fontColor=#000000;" parent="1" vertex="1">
                    <mxGeometry x="365" y="620" width="120" height="60" as="geometry"/>
                </mxCell>
                <mxCell id="NoCKhjs10_cQO4ZBRi83-37" style="edgeStyle=none;shape=connector;rounded=0;orthogonalLoop=1;jettySize=auto;html=1;labelBackgroundColor=none;strokeColor=#36393d;align=center;verticalAlign=middle;fontFamily=Helvetica;fontSize=11;fontColor=#000000;startArrow=none;startFill=0;endArrow=none;endFill=0;fillColor=#eeeeee;" parent="1" source="NoCKhjs10_cQO4ZBRi83-36" target="NoCKhjs10_cQO4ZBRi83-3" edge="1">
                    <mxGeometry relative="1" as="geometry"/>
                </mxCell>
                <mxCell id="NoCKhjs10_cQO4ZBRi83-36" value="name" style="ellipse;whiteSpace=wrap;html=1;align=center;labelBackgroundColor=none;fillColor=#eeeeee;strokeColor=#36393d;fontColor=#000000;" parent="1" vertex="1">
                    <mxGeometry x="170" y="800" width="100" height="40" as="geometry"/>
                </mxCell>
                <mxCell id="NoCKhjs10_cQO4ZBRi83-38" value="status" style="ellipse;whiteSpace=wrap;html=1;align=center;labelBackgroundColor=none;fillColor=#eeeeee;strokeColor=#36393d;fontColor=#000000;" parent="1" vertex="1">
                    <mxGeometry x="590" y="630" width="100" height="40" as="geometry"/>
                </mxCell>
                <mxCell id="NoCKhjs10_cQO4ZBRi83-41" style="edgeStyle=none;shape=connector;rounded=0;orthogonalLoop=1;jettySize=auto;html=1;labelBackgroundColor=none;strokeColor=#36393d;align=center;verticalAlign=middle;fontFamily=Helvetica;fontSize=11;fontColor=#000000;startArrow=none;startFill=0;endArrow=none;endFill=0;fillColor=#eeeeee;" parent="1" source="NoCKhjs10_cQO4ZBRi83-40" target="NoCKhjs10_cQO4ZBRi83-33" edge="1">
                    <mxGeometry relative="1" as="geometry"/>
                </mxCell>
                <mxCell id="NoCKhjs10_cQO4ZBRi83-40" value="owner" style="ellipse;whiteSpace=wrap;html=1;align=center;labelBackgroundColor=none;fillColor=#eeeeee;strokeColor=#36393d;fontColor=#000000;" parent="1" vertex="1">
                    <mxGeometry x="170" y="630" width="100" height="40" as="geometry"/>
                </mxCell>
                <mxCell id="NoCKhjs10_cQO4ZBRi83-44" value="n" style="text;html=1;align=center;verticalAlign=middle;resizable=0;points=[];autosize=1;strokeColor=none;fillColor=none;fontSize=11;fontFamily=Helvetica;labelBackgroundColor=none;fontColor=#000000;" parent="1" vertex="1">
                    <mxGeometry x="425" y="500" width="30" height="30" as="geometry"/>
                </mxCell>
                <mxCell id="NoCKhjs10_cQO4ZBRi83-46" value="m" style="text;html=1;align=center;verticalAlign=middle;resizable=0;points=[];autosize=1;strokeColor=none;fillColor=none;fontSize=11;fontFamily=Helvetica;labelBackgroundColor=none;fontColor=#000000;" parent="1" vertex="1">
                    <mxGeometry x="425" y="770" width="30" height="30" as="geometry"/>
                </mxCell>
                <mxCell id="NoCKhjs10_cQO4ZBRi83-47" value="m" style="text;html=1;align=center;verticalAlign=middle;resizable=0;points=[];autosize=1;strokeColor=none;fillColor=none;fontSize=11;fontFamily=Helvetica;labelBackgroundColor=none;fontColor=#000000;" parent="1" vertex="1">
                    <mxGeometry x="425" y="430" width="30" height="30" as="geometry"/>
                </mxCell>
                <mxCell id="NoCKhjs10_cQO4ZBRi83-48" value="n" style="text;html=1;align=center;verticalAlign=middle;resizable=0;points=[];autosize=1;strokeColor=none;fillColor=none;fontSize=11;fontFamily=Helvetica;labelBackgroundColor=none;fontColor=#000000;" parent="1" vertex="1">
                    <mxGeometry x="425" y="160" width="30" height="30" as="geometry"/>
                </mxCell>
            </root>
        </mxGraphModel>
    </diagram>
</mxfile>